<?xml version="1.0" encoding="utf-8"?>
<!-- Generator: Adobe Illustrator 24.0.2, SVG Export Plug-In . SVG Version: 6.00 Build 0)  -->
<svg version="1.1" xmlns="http://www.w3.org/2000/svg" xmlns:xlink="http://www.w3.org/1999/xlink" x="0px" y="0px"
	 viewBox="0 0 946 441" style="enable-background:new 0 0 946 441;" xml:space="preserve">
<style type="text/css">
	.st0{fill:none;}
	.st1{display:none;}
	.st2{font-family:'JuliusSansOne-Regular';}
	.st3{font-size:450px;}
	.st4{font-family:'Castoro-Regular';}
	.st5{fill:#D4AF37;}
	.st6{font-family:'PlayfairDisplaySC-Regular';}
	.st7{font-size:410px;}
</style>
<g id="Capa_1">
	<rect x="-40" y="-705" class="st0" width="815.36" height="370.59"/>
	<text transform="matrix(1 0 0 1 33.335 -385.5039)" class="st1 st3" style="font-family:'MyriadPro-Regular';">Lux</text>
	<rect x="176.43" y="-525.16" class="st0" width="815.36" height="370.59"/>
	<text transform="matrix(1 0 0 1 229.7791 -293.522)" class="st1 st6" style="font-size:381px;">Lux</text>
	<rect x="-40.57" y="72.15" class="st0" width="815.36" height="370.59"/>
	<text transform="matrix(1 0 0 1 -40.363 366.9036)" class="st1 st2 st3">Lux</text>
	<rect x="-24.57" y="409.26" class="st0" width="815.36" height="370.59"/>
	<text transform="matrix(1 0 0 1 -3.2141 749.006)" class="st1 st4 st3">Lux</text>
	<rect x="-38.57" y="761.98" class="st0" width="815.36" height="370.59"/>
	<text transform="matrix(1 0 0 1 32.5125 1099.4844)" class="st1 st3" style="font-family:'BubblerOne-Regular';">Lux</text>
	<rect x="32.39" y="121" class="st0" width="294.61" height="376"/>
	<text transform="matrix(1 0 0 1 59.1576 370.2744)" class="st5 st6 st7">L</text>
	<rect x="303.55" y="121.85" class="st0" width="294.61" height="376"/>
	<text transform="matrix(1 0 0 1 311.0459 371.1197)" class="st5 st6 st7">U</text>
	<rect x="588.55" y="121.25" class="st0" width="294.61" height="376"/>
	<text transform="matrix(1 0 0 1 605.8867 370.5239)" class="st5 st6 st7">X</text>
</g>
<g id="Capa_2" class="st1">
</g>
</svg>
